<svg xmlns="http://www.w3.org/2000/svg" width="70" height="70" viewBox="0 0 70 70">
  <g id="グループ_27" data-name="グループ 27" transform="translate(-890 -145)">
    <g id="長方形_395" data-name="長方形 395" transform="translate(890 145)" fill="rgba(255,255,255,0)" stroke="#fff" stroke-linejoin="round" stroke-width="5">
      <rect width="70" height="70" stroke="none"/>
      <rect x="2.5" y="2.5" width="65" height="65" fill="none"/>
    </g>
    <g id="長方形_396" data-name="長方形 396" transform="translate(914 167)" fill="rgba(255,255,255,0)" stroke="#fff" stroke-linejoin="round" stroke-width="5">
      <rect width="23" height="25" stroke="none"/>
      <rect x="2.5" y="2.5" width="18" height="20" fill="none"/>
    </g>
    <g id="長方形_397" data-name="長方形 397" transform="translate(890 145)" fill="rgba(255,255,255,0)" stroke="#fff" stroke-linejoin="round" stroke-width="5">
      <rect width="28" height="27" stroke="none"/>
      <rect x="2.5" y="2.5" width="23" height="22" fill="none"/>
    </g>
    <g id="パス_200" data-name="パス 200" transform="translate(932.534 187.045)" fill="rgba(255,255,255,0)">
      <path d="M 24.96557807922363 25.45549583435059 L 2.499998092651367 25.45549583435059 L 2.499998092651367 2.500005006790161 L 24.96557807922363 2.500005006790161 L 24.96557807922363 25.45549583435059 Z" stroke="none"/>
      <path d="M 4.999998092651367 4.999994277954102 L 4.999998092651367 22.95548439025879 L 22.46557807922363 22.95548439025879 L 22.46557807922363 4.999994277954102 L 4.999998092651367 4.999994277954102 M -1.9073486328125e-06 -5.7220458984375e-06 L 27.46557807922363 -5.7220458984375e-06 L 27.46557807922363 27.95548439025879 L -1.9073486328125e-06 27.95548439025879 L -1.9073486328125e-06 -5.7220458984375e-06 Z" stroke="none" fill="#fff"/>
    </g>
  </g>
</svg>
